<svg preserveAspectRatio="none" width="100%" height="100%" overflow="visible" style="display: block;" viewBox="0 0 16 16" fill="none" xmlns="http://www.w3.org/2000/svg">
<g id="Vector">
<path d="M8 0C12.4183 0 16 3.58172 16 8C16 12.4183 12.4183 16 8 16C3.58172 16 0 12.4183 0 8C0 3.58172 3.58172 0 8 0ZM8 1C4.13401 1 1 4.13401 1 8C1 11.866 4.13401 15 8 15C11.866 15 15 11.866 15 8C15 4.13401 11.866 1 8 1Z" fill="var(--fill-0, #FB3367)"/>
<path fill-rule="evenodd" clip-rule="evenodd" d="M8 12C10.2091 12 12 10.2091 12 8C12 5.79086 10.2091 4 8 4C5.79086 4 4 5.79086 4 8C4 10.2091 5.79086 12 8 12Z" fill="var(--fill-0, #FB3367)"/>
</g>
</svg>
