<svg preserveAspectRatio="none" width="100%" height="100%" overflow="visible" style="display: block;" viewBox="0 0 16 16" fill="none" xmlns="http://www.w3.org/2000/svg">
  <path d="M6.74074 1.94528L3.4418 4.81858C3.41159 4.84427 3.37312 4.85839 3.33333 4.85839H2.5C1.85567 4.85839 1.33333 5.37659 1.33333 6.01582V9.98416C1.33333 10.6234 1.85567 11.1416 2.5 11.1416H3.33333C3.37312 11.1416 3.41159 11.1557 3.4418 11.1814L6.74074 14.0546C7.22996 14.4706 7.96647 14.4144 8.3858 13.9291C8.56704 13.7193 8.66667 13.4521 8.66667 13.1758V2.82406C8.66667 2.18483 8.14433 1.66663 7.5 1.66663C7.2215 1.66663 6.95219 1.76547 6.74074 1.94528ZM4.19496 10.2471C3.95087 10.0491 3.64645 9.94159 3.33333 9.94159H2.53333V6.05839H3.33333C3.64646 6.05839 3.95087 5.95092 4.19494 5.75287L7.46667 2.9011V13.0988L4.19496 10.2471Z" fill="black" fill-opacity="0.8"/>
  <path d="M14.4981 5.7693C14.2642 5.53536 13.8748 5.54548 13.6283 5.79189L12.267 7.15234L10.9055 5.79165C10.659 5.54524 10.2696 5.53512 10.0357 5.76906C9.80177 6.00299 9.81189 6.39239 10.0583 6.6388L11.4195 7.99996L10.059 9.36123C9.81259 9.60764 9.80248 9.99704 10.0364 10.231C10.2703 10.4649 10.6597 10.4548 10.9062 10.2084L12.267 8.84752L13.6276 10.2081C13.8741 10.4546 14.2635 10.4647 14.4974 10.2307C14.7313 9.9968 14.7212 9.6074 14.4748 9.36099L13.1146 7.9999L14.4755 6.63904C14.7219 6.39263 14.732 6.00323 14.4981 5.7693Z" fill="black" fill-opacity="0.8"/>
</svg>
